<svg xmlns="http://www.w3.org/2000/svg" width="114" height="31" viewBox="0 0 114 31">
    <defs>
        <linearGradient id="prefix__a" x1="50%" x2="50%" y1="99.999%" y2=".019%">
            <stop offset="0%" stop-color="#4E4E4E"/>
            <stop offset="54%" stop-color="#FFF"/>
            <stop offset="100%" stop-color="#B3B2B3"/>
        </linearGradient>
        <linearGradient id="prefix__b" x1="50.013%" x2="50.013%" y1="99.988%" y2="0%">
            <stop offset="0%" stop-color="#4E4E4E"/>
            <stop offset="54%" stop-color="#FFF"/>
            <stop offset="100%" stop-color="#B3B2B3"/>
        </linearGradient>
        <linearGradient id="prefix__c" x1="49.987%" x2="49.987%" y1="99.989%" y2=".087%">
            <stop offset="0%" stop-color="#4E4E4E"/>
            <stop offset="54%" stop-color="#FFF"/>
            <stop offset="100%" stop-color="#B3B2B3"/>
        </linearGradient>
        <linearGradient id="prefix__d" x1="49.988%" x2="49.988%" y1="100%" y2=".002%">
            <stop offset="0%" stop-color="#4E4E4E"/>
            <stop offset="54%" stop-color="#FFF"/>
            <stop offset="100%" stop-color="#B3B2B3"/>
        </linearGradient>
        <linearGradient id="prefix__e" x1="49.971%" x2="49.971%" y1="100%" y2=".019%">
            <stop offset="0%" stop-color="#4E4E4E"/>
            <stop offset="54%" stop-color="#FFF"/>
            <stop offset="100%" stop-color="#B3B3B3"/>
        </linearGradient>
        <linearGradient id="prefix__f" x1="49.991%" x2="49.991%" y1="100%" y2="-.08%">
            <stop offset="0%" stop-color="#4E4E4E"/>
            <stop offset="54%" stop-color="#FFF"/>
            <stop offset="100%" stop-color="#B3B2B3"/>
        </linearGradient>
        <linearGradient id="prefix__g" x1="50.027%" x2="50.027%" y1="99.989%" y2=".087%">
            <stop offset="0%" stop-color="#4E4E4E"/>
            <stop offset="54%" stop-color="#FFF"/>
            <stop offset="100%" stop-color="#B3B2B3"/>
        </linearGradient>
        <linearGradient id="prefix__h" x1="50.014%" x2="50.014%" y1="100%" y2="0%">
            <stop offset="0%" stop-color="#4E4E4E"/>
            <stop offset="80%" stop-color="#F2F2F2"/>
            <stop offset="100%" stop-color="#E6E6E6"/>
        </linearGradient>
        <linearGradient id="prefix__i" x1="49.983%" x2="49.983%" y1="99.946%" y2="0%">
            <stop offset="0%" stop-color="#4E4E4E"/>
            <stop offset="80%" stop-color="#F2F2F2"/>
            <stop offset="100%" stop-color="#E6E6E6"/>
        </linearGradient>
        <linearGradient id="prefix__j" x1="49.985%" x2="49.985%" y1=".107%" y2="99.886%">
            <stop offset="0%" stop-color="#B3B3B3"/>
            <stop offset="100%" stop-color="#DBDBDB"/>
        </linearGradient>
        <linearGradient id="prefix__k" x1="49.97%" x2="49.97%" y1="100%" y2=".139%">
            <stop offset="0%" stop-color="#B3B3B3"/>
            <stop offset="100%" stop-color="#DBDBDB"/>
        </linearGradient>
    </defs>
    <g fill="none" fill-rule="evenodd">
        <g fill-rule="nonzero">
            <path fill="#3B96F3" d="M101.182 4.59v2.16c2.993.002 5.42 2.43 5.42 5.423h2.16c-.005-4.185-3.395-7.577-7.58-7.583z" transform="translate(0 4.05)"/>
            <path fill="#3B96F3" d="M101.182.24V2.4c5.388.002 9.756 4.37 9.756 9.76h2.16C113.094 5.58 107.762.245 101.182.24z" transform="translate(0 4.05)"/>
            <path fill="url(#prefix__a)" d="M16.41 21.257c-2.48 0-3.838-1.656-3.838-4.459v-11.9c-.013-.095.019-.191.087-.26.068-.067.164-.1.26-.085h1.976c.095-.014.191.018.26.086.067.068.1.164.085.26v11.808c0 1.517.481 2.114 1.515 2.114.27 0 .575-.022.872-.046.096-.014.192.018.26.086.068.068.1.164.086.26v1.698c0 .184-.068.346-.254.367-.435.05-.872.073-1.31.07z" transform="translate(0 4.05)"/>
            <path fill="url(#prefix__b)" d="M29.255 15.834c0 .206-.116.322-.346.322h-6.983v.642c0 1.402.964 2.115 2.43 2.115 1.166.003 2.301-.367 3.24-1.056.068-.058.158-.084.246-.07.088.012.166.063.214.137l.942 1.264c.067.068.099.164.085.258-.013.095-.07.178-.152.225-1.322 1.059-2.973 1.62-4.666 1.586-2.595 0-5.031-1.426-5.031-4.48V13.5c.003-3.364 2.53-4.698 5.068-4.698 2.539 0 4.953 1.334 4.953 4.698v2.333zm-4.953-4.687c-1.35 0-2.365.642-2.365 2.344v.596h4.72v-.586c0-1.687-1.077-2.354-2.355-2.354z" transform="translate(0 4.05)"/>
            <path fill="url(#prefix__c)" d="M41.295 15.834c0 .206-.116.322-.345.322h-6.986v.642c0 1.402.967 2.115 2.43 2.115 1.165.002 2.3-.367 3.24-1.056.068-.057.158-.082.245-.07.088.014.166.063.215.137l.95 1.264c.068.068.1.164.086.26-.014.094-.072.178-.156.223-1.321 1.058-2.971 1.62-4.663 1.586-2.595 0-5.031-1.426-5.031-4.48V13.5c0-3.375 2.527-4.709 5.055-4.709 2.527 0 4.96 1.345 4.96 4.71v2.332zm-4.963-4.687c-1.35 0-2.368.642-2.368 2.344v.596h4.734v-.586c0-1.687-1.08-2.354-2.366-2.354z" transform="translate(0 4.05)"/>
            <path fill="url(#prefix__d)" d="M48.095 18.82c.207 0 .575-.02.942-.045.23 0 .367.116.367.321v1.747c.008.092-.021.183-.082.253-.06.069-.147.11-.24.115-.39.024-.871.046-1.217.046-2.39 0-4.25-1.218-4.25-4.25V6.504c0-.205.113-.321.343-.321h1.747c.175-.008.327.122.345.297l.206 2.757h2.46c.09-.01.18.019.246.08.066.063.101.15.097.241v1.677c.004.09-.031.178-.097.24-.067.062-.156.092-.246.081h-2.43v5.266c-.006 1.269.637 1.998 1.809 1.998z" transform="translate(0 4.05)"/>
            <path fill="url(#prefix__e)" d="M76.701 4.898c-.013-.094.018-.19.086-.258.067-.068.162-.1.257-.087h1.977c.095-.014.191.018.26.086.067.068.1.164.085.26v15.14c.024.175-.084.341-.253.391-1.492.528-3.06.807-4.642.827-3.033 0-5.26-1.564-5.26-5.055v-2.528c0-2.986 2.111-4.86 5.009-4.86.852.001 1.696.173 2.481.505v-4.42zm-2.16 14.015c.733.012 1.463-.097 2.16-.322v-6.823c-.661-.41-1.428-.618-2.206-.597-1.655 0-2.598.756-2.598 2.503v2.552c0 1.974.989 2.676 2.644 2.676v.01z" transform="translate(0 4.05)"/>
            <path fill="url(#prefix__f)" d="M86.878 25.577c-1.89 0-3.261-.483-4.48-1.426-.183-.113-.183-.25-.07-.459l.967-1.426c.037-.086.114-.148.206-.167.091-.018.186.01.253.076.895.672 1.981 1.039 3.1 1.047 1.726 0 2.552-.758 2.482-3.078-.81.33-1.675.502-2.55.505-2.7 0-4.962-1.515-4.962-4.755v-2.16c0-3.608 2.39-4.918 5.308-4.918 1.574-.002 3.134.302 4.59.897.166.056.271.218.255.391v10.118c.002 3.4-1.47 5.355-5.099 5.355zm.16-7.29c.875 0 1.839-.206 2.276-.573v-6.268c-.698-.176-1.416-.261-2.136-.253-1.585 0-2.665.54-2.665 2.527v2.16c.005 1.815 1.126 2.412 2.525 2.412v-.006z" transform="translate(0 4.05)"/>
            <path fill="url(#prefix__g)" d="M104.5 15.834c0 .206-.113.322-.342.322h-6.986v.642c0 1.402.964 2.115 2.43 2.115 1.165.002 2.3-.367 3.24-1.056.068-.057.157-.082.245-.07.088.014.166.063.215.137l.942 1.264c.067.069.098.164.084.26-.014.094-.07.177-.154.223-1.321 1.058-2.972 1.62-4.664 1.586-2.597 0-5.033-1.426-5.033-4.48V13.5c0-3.375 2.528-4.709 5.055-4.709 2.527 0 4.968 1.345 4.968 4.71v2.332zm-4.963-4.687c-1.35 0-2.365.642-2.365 2.344v.596h4.733v-.586c0-1.687-1.08-2.354-2.368-2.354z" transform="translate(0 4.05)"/>
            <path fill="url(#prefix__h)" d="M9.219 11.881H2.854V9.294H.097v11.341c0 .23.116.346.322.346h2.114c.208 0 .321-.116.321-.346V14.41H9.22c.208 0 .321-.114.321-.343v-1.84c0-.229-.113-.345-.321-.345z" transform="translate(0 4.05)"/>
            <path fill="url(#prefix__i)" d="M66.888 18.454h-7.374v-4.55h6.456c.095.013.19-.018.258-.086.067-.067.099-.163.085-.257v-1.84c.014-.094-.018-.19-.085-.257-.068-.068-.163-.1-.258-.088h-6.456V9.297h-2.781v11.341c0 .23.116.346.321.346h9.834c.097.015.194-.017.263-.086.069-.069.1-.166.086-.263v-1.86c0-.208-.12-.321-.349-.321z" transform="translate(0 4.05)"/>
            <path fill="url(#prefix__j)" d="M10.194 7.126c.09.013.18-.016.246-.079s.1-.152.091-.242V4.898c.014-.094-.018-.19-.085-.258-.068-.068-.163-.1-.258-.087H.418c-.205 0-.32.116-.32.345v2.228h10.096z" transform="translate(0 4.05)"/>
            <path fill="url(#prefix__k)" d="M66.567 4.553h-9.513c-.205 0-.321.116-.321.345v2.228h9.834c.23 0 .346-.116.346-.321v-1.89c.02-.098-.01-.2-.079-.272-.069-.072-.168-.106-.267-.09z" transform="translate(0 4.05)"/>
        </g>
        <path fill="#FFF" d="M.097.076L2.587.076 2.587.805 1.871.805 1.871 2.565.832 2.565.832.805.097.805zM3.818 1.088L3.27 2.565 2.23 2.565 3.259.076 4.388.076 5.43 2.565 4.377 2.565zM5.43.076L7.917.076 7.917.805 7.204.805 7.204 2.565 6.165 2.565 6.165.805 5.43.805zM9.151 1.088L8.603 2.565 7.561 2.565 8.581.076 9.721.076 10.761 2.565 9.71 2.565zM23.865 1.574c.189.043.284.154.348.408.047.201.115.397.203.583h.564c-.09-.22-.166-.445-.23-.675-.047-.226-.21-.41-.429-.486.3-.057.522-.31.54-.616.002-.2-.1-.387-.27-.494-.216-.14-.468-.216-.726-.218v.343c.284.032.456.153.456.396 0 .244-.172.362-.456.395v.364zm-1.018.991h.54V1.553h.27c.063-.004.126.003.186.021V1.21H23.398V.44c.114-.017.23-.024.345-.021h.122V.076h-.173c-.282 0-.564.015-.845.046v2.443zM25.334 2.403c.2.11.423.166.65.162.62 0 .905-.343.905-.729 0-.343-.202-.559-.618-.718-.319-.119-.456-.205-.456-.386 0-.181.108-.303.394-.303.166-.001.33.037.478.111l.108-.354c-.18-.08-.378-.118-.575-.11-.524 0-.854.3-.854.688 0 .389.27.567.651.708.308.105.424.213.424.397 0 .183-.16.332-.435.332-.202-.002-.401-.058-.575-.162l-.097.364zM14.503 1.547c-.016-.324-.043-.71-.043-1.045-.095.308-.208.646-.316.953l-.4 1.08h-.375l-.343-1.08c-.108-.316-.199-.64-.27-.966h-.013c0 .321-.027.72-.04 1.08l-.066.996h-.453l.164-2.49h.648l.346 1.005c.097.27.181.58.248.864h.014c.07-.27.167-.58.27-.877l.367-.991h.635l.151 2.49h-.483l-.04-1.019zM16.545 2.743c.675 0 1.169-.504 1.169-1.35 0-.75-.432-1.317-1.15-1.317h-.02v.378c.454 0 .686.461.686.945 0 .54-.243.966-.685.966v.378zm0 0v-.378c-.435 0-.689-.432-.689-.945 0-.513.232-.966.689-.966V.076c-.689.01-1.153.567-1.153 1.355 0 .789.445 1.312 1.142 1.312h.01zM21.165 2.743c.677 0 1.172-.504 1.172-1.35 0-.745-.427-1.312-1.15-1.312h-.022v.378c.453 0 .686.462.686.945 0 .54-.243.967-.686.967v.372zm0 0v-.378c-.435 0-.686-.432-.686-.945 0-.513.23-.966.686-.966V.076c-.686 0-1.161.567-1.161 1.35 0 .783.442 1.312 1.142 1.312l.019.005zM18.683 2.565L19.202 2.565 19.202.462 20.004.462 20.004.076 17.87.076 17.87.462 18.683.462z"/>
    </g>
</svg>
